<svg width="19" height="18" viewBox="0 0 19 18" fill="none" xmlns="http://www.w3.org/2000/svg">
<path d="M4.47059 0C5.08879 0 5.58824 0.473162 5.58824 1.05882V2.11765H10.0588V1.05882C10.0588 0.473162 10.5583 0 11.1765 0C11.7947 0 12.2941 0.473162 12.2941 1.05882V2.11765H13.4118C14.6447 2.11765 15.6471 3.06728 15.6471 4.23529V5.82353H0V4.23529C0 3.06728 1.00239 2.11765 2.23529 2.11765H3.35294V1.05882C3.35294 0.473162 3.85239 0 4.47059 0ZM0 7.41177H11.2847C8.91673 8.39118 7.26471 10.6313 7.26471 13.2353C7.26471 14.1816 7.48125 15.075 7.87243 15.8824H2.23529C1.00239 15.8824 0 14.9327 0 13.7647V7.41177ZM8.94118 13.2353C8.94118 11.9716 9.47106 10.7597 10.4143 9.86614C11.3575 8.97258 12.6367 8.47059 13.9706 8.47059C15.3045 8.47059 16.5837 8.97258 17.5269 9.86614C18.4701 10.7597 19 11.9716 19 13.2353C19 14.499 18.4701 15.7109 17.5269 16.6045C16.5837 17.498 15.3045 18 13.9706 18C12.6367 18 11.3575 17.498 10.4143 16.6045C9.47106 15.7109 8.94118 14.499 8.94118 13.2353ZM13.9706 10.5882C13.6632 10.5882 13.4118 10.8265 13.4118 11.1176V13.2353C13.4118 13.5265 13.6632 13.7647 13.9706 13.7647H15.6471C15.9544 13.7647 16.2059 13.5265 16.2059 13.2353C16.2059 12.9441 15.9544 12.7059 15.6471 12.7059H14.5294V11.1176C14.5294 10.8265 14.2779 10.5882 13.9706 10.5882Z" fill="white"/>
</svg>
