<svg width="18" height="18" viewBox="0 0 18 18" fill="none" xmlns="http://www.w3.org/2000/svg">
<path d="M10.7265 8.40265H16.9365C17.561 8.40265 18.0727 7.89455 17.9915 7.27708C17.4905 3.50165 14.4984 0.51306 10.7229 0.00849348C10.1054 -0.0726606 9.59735 0.438963 9.59735 1.0635V7.27355C9.59735 7.89808 10.1019 8.40265 10.7265 8.40265ZM7.9037 2.28786C7.9037 1.6351 7.34974 1.11289 6.71109 1.24698C2.87921 2.05499 0 5.45993 0 9.53175C0 14.2069 3.79307 18 8.46825 18C12.5436 18 15.945 15.1243 16.753 11.2889C16.8871 10.6503 16.3649 10.0963 15.7121 10.0963H8.75053C8.28124 10.0963 7.9037 9.71876 7.9037 9.24947V2.28786Z" fill="white"/>
</svg>
