<svg width="18" height="18" viewBox="0 0 18 18" fill="none" xmlns="http://www.w3.org/2000/svg">
<path d="M15.6551 7.875H13.5C12.8777 7.875 12.375 8.37773 12.375 9C12.375 9.62227 12.8777 10.125 13.5 10.125H15.6551C15.184 12.9516 12.9516 15.184 10.125 15.6551V13.5C10.125 12.8777 9.62227 12.375 9 12.375C8.37773 12.375 7.875 12.8777 7.875 13.5V15.6551C5.04844 15.184 2.81602 12.9516 2.34492 10.125H4.5C5.12227 10.125 5.625 9.62227 5.625 9C5.625 8.37773 5.12227 7.875 4.5 7.875H2.34492C2.81602 5.04844 5.04844 2.81602 7.875 2.34492V4.5C7.875 5.12227 8.37773 5.625 9 5.625C9.62227 5.625 10.125 5.12227 10.125 4.5V2.34492C12.9516 2.81602 15.184 5.04844 15.6551 7.875ZM0 9C0 11.3869 0.948212 13.6761 2.63604 15.364C4.32387 17.0518 6.61305 18 9 18C11.3869 18 13.6761 17.0518 15.364 15.364C17.0518 13.6761 18 11.3869 18 9C18 6.61305 17.0518 4.32387 15.364 2.63604C13.6761 0.948212 11.3869 0 9 0C6.61305 0 4.32387 0.948212 2.63604 2.63604C0.948212 4.32387 0 6.61305 0 9Z" fill="white"/>
</svg>
