<svg width="18" height="16" viewBox="0 0 18 16" fill="none" xmlns="http://www.w3.org/2000/svg">
<path d="M17.7522 8.60714C18.0826 8.27143 18.0826 7.72857 17.7522 7.39643L12.6902 2.25C12.4476 2.00357 12.0855 1.93214 11.7692 2.06429C11.4528 2.19643 11.2489 2.51071 11.2489 2.85714V5.71429H7.31179C6.38024 5.71429 5.62445 6.48214 5.62445 7.42857V8.57143C5.62445 9.51786 6.38024 10.2857 7.31179 10.2857H11.2489V13.1429C11.2489 13.4893 11.4528 13.8036 11.7692 13.9357C12.0855 14.0679 12.4476 13.9964 12.6902 13.75L17.7522 8.60714ZM5.62445 2.28571C6.24666 2.28571 6.74934 1.775 6.74934 1.14286C6.74934 0.510714 6.24666 0 5.62445 0H3.37467C1.51157 0 0 1.53571 0 3.42857V12.5714C0 14.4643 1.51157 16 3.37467 16H5.62445C6.24666 16 6.74934 15.4893 6.74934 14.8571C6.74934 14.225 6.24666 13.7143 5.62445 13.7143H3.37467C2.75247 13.7143 2.24978 13.2036 2.24978 12.5714V3.42857C2.24978 2.79643 2.75247 2.28571 3.37467 2.28571H5.62445Z" fill="white"/>
</svg>
