<svg width="16" height="18" viewBox="0 0 16 18" fill="none" xmlns="http://www.w3.org/2000/svg">
<path d="M1.14286 0C1.775 0 2.28571 0.502734 2.28571 1.125V1.6875L4.75 1.08281C6.11071 0.748828 7.54643 0.903516 8.80357 1.52227C10.4571 2.33789 12.4036 2.33789 14.0571 1.52227L14.4 1.35352C15.1357 0.987891 16 1.51523 16 2.32383V12.157C16 12.6246 15.7036 13.0465 15.2571 13.2117L14.0179 13.6687C12.3679 14.277 10.5321 14.182 8.95714 13.4086C7.60357 12.7406 6.05 12.5754 4.58214 12.9375L2.28571 13.5V16.875C2.28571 17.4973 1.775 18 1.14286 18C0.510714 18 0 17.4973 0 16.875V1.125C0 0.502734 0.510714 0 1.14286 0ZM2.28571 6.57773L4.57143 6.08906V8.3918L2.28571 8.88047V11.1832L4.02857 10.7543C4.21071 10.7086 4.38929 10.6699 4.57143 10.6383V8.3918L5.96071 8.09648C6.25714 8.0332 6.55714 8.00859 6.85714 8.02266V5.77266C7.34286 5.78672 7.82857 5.86406 8.3 5.99766L9.14286 6.24023V8.58516L7.65357 8.15273C7.39286 8.07891 7.125 8.0332 6.85714 8.01914V10.5293C7.63571 10.5961 8.40357 10.7648 9.14286 11.0355V8.58164L9.95357 8.81719C10.4357 8.95781 10.9286 9.04219 11.4286 9.07734V6.82031C11.15 6.79219 10.8714 6.73945 10.6 6.66211L9.14286 6.24023V4.06055C8.67857 3.92695 8.22143 3.75117 7.77857 3.5332C7.48571 3.38906 7.175 3.28711 6.85714 3.22383V5.76914C6.39286 5.75508 5.92857 5.79727 5.475 5.8957L4.57143 6.08906V3.44531L2.28571 4.00781V6.57773ZM11.4286 11.802C12.0286 11.8547 12.6393 11.7773 13.2143 11.5629L13.7143 11.3801V8.85938L13.4321 8.92266C12.775 9.07383 12.1 9.12305 11.4286 9.08086V11.802ZM13.7143 6.54961V4.06055C12.9679 4.275 12.2 4.38047 11.4286 4.38047V6.82031C11.925 6.86953 12.4286 6.83789 12.9179 6.72891L13.7143 6.54609V6.54961Z" fill="white"/>
</svg>
