<svg width="19" height="18" viewBox="0 0 19 18" fill="none" xmlns="http://www.w3.org/2000/svg">
<path d="M17.1237 1.0993C17.1237 0.718738 16.9331 0.365604 16.6154 0.166752C16.2977 -0.0320999 15.9064 -0.0526708 15.5753 0.118753L11.689 2.1107L5.68896 0.0570407C5.41806 -0.0355284 5.12709 -0.0149575 4.87291 0.115325L0.591973 2.30955C0.227425 2.49812 0 2.87868 0 3.29353V15.3618C0 15.7423 0.190635 16.0955 0.508361 16.2943C0.826087 16.4932 1.21739 16.5138 1.5485 16.3423L5.43144 14.3504L11.2274 16.332C11.0836 16.1126 10.9431 15.8829 10.806 15.6498C10.4381 15.0224 10.0736 14.3024 9.80268 13.531L6.41806 12.3756V2.62155L10.699 4.08551V7.48999C11.7358 6.26259 13.2742 5.48776 14.9799 5.48776C15.7358 5.48776 16.4582 5.63861 17.1204 5.91632L17.1237 1.0993ZM14.9833 7.13343C12.7659 7.13343 10.9699 8.94367 10.9699 11.1756C10.9699 13.5378 13.1137 16.332 14.2676 17.6657C14.6555 18.1114 15.3144 18.1114 15.7023 17.6657C16.8562 16.332 19 13.5378 19 11.1756C19 8.94367 17.204 7.13343 14.9866 7.13343H14.9833ZM13.6455 11.2476C13.6455 10.8839 13.7864 10.5351 14.0373 10.2779C14.2882 10.0207 14.6285 9.87621 14.9833 9.87621C15.3381 9.87621 15.6784 10.0207 15.9292 10.2779C16.1801 10.5351 16.3211 10.8839 16.3211 11.2476C16.3211 11.6113 16.1801 11.9601 15.9292 12.2173C15.6784 12.4745 15.3381 12.619 14.9833 12.619C14.6285 12.619 14.2882 12.4745 14.0373 12.2173C13.7864 11.9601 13.6455 11.6113 13.6455 11.2476Z" fill="white"/>
</svg>
