<svg width="22" height="18" viewBox="0 0 22 18" fill="none" xmlns="http://www.w3.org/2000/svg">
<path d="M13.223 1.125H17.6311C18.2407 1.125 18.7332 1.62773 18.7332 2.25C18.7332 2.87227 18.2407 3.375 17.6311 3.375H13.7189C13.5398 4.28203 12.9303 5.03086 12.121 5.38945V15.75H17.6311C18.2407 15.75 18.7332 16.2527 18.7332 16.875C18.7332 17.4973 18.2407 18 17.6311 18H4.40675C3.79719 18 3.30472 17.4973 3.30472 16.875C3.30472 16.2527 3.79719 15.75 4.40675 15.75H9.91691V5.38945C9.10761 5.02734 8.49804 4.27852 8.31896 3.375H4.40675C3.79719 3.375 3.30472 2.87227 3.30472 2.25C3.30472 1.62773 3.79719 1.125 4.40675 1.125H8.81488C9.31768 0.442969 10.1167 0 11.0189 0C11.9212 0 12.7202 0.442969 13.223 1.125ZM15.1378 11.25H20.1245L17.6311 6.88359L15.1378 11.25ZM17.6311 14.625C15.4649 14.625 13.6638 13.4297 13.2919 11.8512C13.2023 11.4645 13.3263 11.0672 13.5226 10.7227L16.8012 4.98516C16.9734 4.68281 17.2902 4.5 17.6311 4.5C17.9721 4.5 18.2889 4.68633 18.4611 4.98516L21.7396 10.7227C21.9359 11.0672 22.0599 11.4645 21.9704 11.8512C21.5984 13.4262 19.7973 14.625 17.6311 14.625ZM4.36543 6.88359L1.87208 11.25H6.86222L4.36543 6.88359ZM0.0296212 11.8512C-0.0599188 11.4645 0.0640597 11.0672 0.260359 10.7227L3.5389 4.98516C3.7111 4.68281 4.02793 4.5 4.36887 4.5C4.70981 4.5 5.02664 4.68633 5.19884 4.98516L8.47738 10.7227C8.67368 11.0672 8.79766 11.4645 8.70812 11.8512C8.33618 13.4262 6.53505 14.625 4.36887 14.625C2.20269 14.625 0.401557 13.4297 0.0296212 11.8512Z" fill="white"/>
</svg>
