<svg width="16" height="16" viewBox="0 0 16 16" fill="none" xmlns="http://www.w3.org/2000/svg">
<path d="M9.57244 0.678257C9.53172 0.353194 9.28739 0.0906427 8.96163 0.0531354C8.65466 0.0187537 8.34143 0 8.02506 0C7.67737 0 7.33281 0.0218793 6.99765 0.0656378C6.67502 0.106271 6.43383 0.368822 6.39311 0.69076L6.30227 1.41278C6.27721 1.61282 6.13312 1.77535 5.94205 1.84098C5.64135 1.941 5.34691 2.06603 5.06813 2.20668C4.88645 2.30045 4.66719 2.28482 4.50431 2.1598L3.94049 1.72221C3.68363 1.52217 3.32341 1.50967 3.06656 1.70971C2.54659 2.11604 2.07987 2.58488 1.6758 3.10686C1.47847 3.36316 1.49099 3.71948 1.69146 3.97578L2.13626 4.54776C2.26155 4.70717 2.27408 4.92284 2.18324 5.10412C2.04542 5.37918 1.92639 5.66361 1.82929 5.96054C1.76664 6.15433 1.60063 6.2981 1.40016 6.32311L0.685983 6.41375C0.363352 6.45439 0.100235 6.69818 0.0595145 7.02012C0.0187941 7.34206 0 7.67337 0 8.00469C0 8.336 0.0187941 8.66419 0.0595145 8.98613C0.100235 9.30807 0.363352 9.55187 0.685983 9.5925L1.40016 9.68314C1.60063 9.70815 1.76664 9.85192 1.82929 10.0457C1.92639 10.3426 2.04542 10.6302 2.18324 10.9053C2.27408 11.0865 2.25842 11.3022 2.13626 11.4616L1.69773 12.0242C1.49726 12.2805 1.48473 12.6368 1.68207 12.8931C2.08614 13.4151 2.55286 13.884 3.07283 14.2903C3.32968 14.4903 3.6899 14.4778 3.94675 14.2778L4.51057 13.8402C4.67032 13.7152 4.89272 13.7027 5.07439 13.7933C5.3563 13.9371 5.64761 14.059 5.94832 14.159C6.13939 14.2247 6.28348 14.3872 6.30854 14.5872L6.39937 15.3092C6.44009 15.6312 6.68128 15.8937 7.00392 15.9344C7.33908 15.9781 7.68363 16 8.03132 16C8.34769 16 8.66092 15.9812 8.96789 15.9469C9.29366 15.9094 9.53798 15.6437 9.5787 15.3217L9.66641 14.6185C9.69146 14.4153 9.83869 14.2497 10.0329 14.1871C10.3461 14.0871 10.65 13.9621 10.9413 13.8183C11.1229 13.7277 11.3391 13.7433 11.4988 13.8652L12.0658 14.309C12.3226 14.5091 12.6797 14.5216 12.9366 14.3247C13.0243 14.2559 13.1088 14.1871 13.1934 14.1153L14.1551 13.1557C14.2114 13.0869 14.2678 13.0182 14.3242 12.9494C14.5278 12.6931 14.5121 12.3337 14.3117 12.0774L13.8731 11.5179C13.7478 11.3585 13.7353 11.1366 13.8262 10.9553C13.9765 10.6615 14.1081 10.352 14.2114 10.0332C14.2741 9.83942 14.4401 9.69564 14.6406 9.67064L15.3547 9.58312C15.6774 9.54249 15.9436 9.29869 15.9812 8.97675C15.9875 8.92362 15.9937 8.86736 16 8.81422V7.19203C15.9937 7.13889 15.9875 7.08263 15.9812 7.0295C15.9405 6.70756 15.6774 6.46376 15.3547 6.42313L14.6406 6.33561C14.4401 6.31061 14.2741 6.16683 14.2114 5.97304C14.1049 5.65423 13.9765 5.34479 13.8262 5.05099C13.7322 4.8697 13.7478 4.65091 13.8731 4.48838L14.3117 3.92889C14.5121 3.67259 14.5247 3.31315 14.3242 3.05685C14.2678 2.98808 14.2114 2.91932 14.1551 2.85056L13.1934 1.88162C13.1088 1.80973 13.0243 1.74097 12.9366 1.6722C12.6797 1.47216 12.3226 1.48779 12.0658 1.68783L11.4926 2.13167C11.3328 2.25669 11.1135 2.26919 10.935 2.17855C10.6437 2.03477 10.3399 1.90975 10.0266 1.80973C9.83242 1.74722 9.6852 1.58156 9.66014 1.38152L9.57244 0.678257ZM8.02506 5.49795C8.68966 5.49795 9.32704 5.76139 9.79698 6.23032C10.2669 6.69926 10.5309 7.33527 10.5309 7.99844C10.5309 8.66161 10.2669 9.29762 9.79698 9.76655C9.32704 10.2355 8.68966 10.4989 8.02506 10.4989C7.36046 10.4989 6.72308 10.2355 6.25314 9.76655C5.7832 9.29762 5.51919 8.66161 5.51919 7.99844C5.51919 7.33527 5.7832 6.69926 6.25314 6.23032C6.72308 5.76139 7.36046 5.49795 8.02506 5.49795Z" fill="white"/>
</svg>
