<svg width="18" height="18" viewBox="0 0 18 18" fill="none" xmlns="http://www.w3.org/2000/svg">
<path d="M14.625 15.0258C16.6816 13.4789 18 11.1023 18 8.4375C18 3.7793 13.9711 0 9 0C4.02891 0 0 3.7793 0 8.4375C0 11.1023 1.31836 13.4789 3.375 15.0258V16.3125C3.375 17.2441 4.13086 18 5.0625 18H6.1875V16.5938C6.1875 16.1262 6.56367 15.75 7.03125 15.75C7.49883 15.75 7.875 16.1262 7.875 16.5938V18H10.125V16.5938C10.125 16.1262 10.5012 15.75 10.9688 15.75C11.4363 15.75 11.8125 16.1262 11.8125 16.5938V18H12.9375C13.8691 18 14.625 17.2441 14.625 16.3125V15.0258ZM3.375 9C3.375 8.40326 3.61205 7.83097 4.03401 7.40901C4.45597 6.98705 5.02826 6.75 5.625 6.75C6.22174 6.75 6.79403 6.98705 7.21599 7.40901C7.63795 7.83097 7.875 8.40326 7.875 9C7.875 9.59674 7.63795 10.169 7.21599 10.591C6.79403 11.0129 6.22174 11.25 5.625 11.25C5.02826 11.25 4.45597 11.0129 4.03401 10.591C3.61205 10.169 3.375 9.59674 3.375 9ZM12.375 6.75C12.9717 6.75 13.544 6.98705 13.966 7.40901C14.3879 7.83097 14.625 8.40326 14.625 9C14.625 9.59674 14.3879 10.169 13.966 10.591C13.544 11.0129 12.9717 11.25 12.375 11.25C11.7783 11.25 11.206 11.0129 10.784 10.591C10.3621 10.169 10.125 9.59674 10.125 9C10.125 8.40326 10.3621 7.83097 10.784 7.40901C11.206 6.98705 11.7783 6.75 12.375 6.75Z" fill="white"/>
</svg>
