<svg width="18" height="18" viewBox="0 0 18 18" fill="none" xmlns="http://www.w3.org/2000/svg">
<path d="M0 2.4071V0.577415C0 0.259837 0.253125 0 0.5625 0H2.34492C2.64375 0 2.92852 0.122701 3.13945 0.339231L12.8672 10.3249L10.0547 13.212L0.326953 3.2263C0.119531 3.00977 0 2.71385 0 2.4071ZM14.0625 16.1676L11.2641 17.124C10.909 17.2467 10.5223 17.1492 10.2586 16.8786C9.87539 16.4852 9.87539 15.8464 10.2586 15.4495L15.0539 10.5306C15.4371 10.1372 16.0594 10.1372 16.4461 10.5306C16.7098 10.8013 16.8012 11.2018 16.6852 11.5627L15.75 14.4354L17.2055 15.9294C17.6449 16.3805 17.6449 17.1131 17.2055 17.5642L17.1105 17.6617C16.6711 18.1128 15.9574 18.1128 15.518 17.6617L14.0625 16.1676ZM3.9375 11.5483L4.9957 10.462L7.8082 13.3491L6.75 14.4354L7.74141 15.4531C8.12461 15.8464 8.12461 16.4852 7.74141 16.8822C7.47773 17.1528 7.0875 17.2467 6.73594 17.1276L3.9375 16.1676L2.48203 17.6617C2.04258 18.1128 1.32891 18.1128 0.889453 17.6617L0.794531 17.5642C0.355078 17.1131 0.355078 16.3805 0.794531 15.9294L2.25 14.4354L1.31836 11.5627C1.19883 11.1982 1.29375 10.8013 1.55742 10.5306C1.94062 10.1372 2.56289 10.1372 2.94961 10.5306L3.9375 11.5483ZM17.6695 3.2263L13.0043 8.01524L10.1918 5.12816L14.857 0.339231C15.068 0.122701 15.3527 0 15.6516 0L17.4375 0C17.7469 0 18 0.259837 18 0.577415V2.4071C18 2.71385 17.8805 3.00617 17.6695 3.2227V3.2263Z" fill="white"/>
</svg>
