<svg width="15" height="18" viewBox="0 0 15 18" fill="none" xmlns="http://www.w3.org/2000/svg">
<path d="M7.5018 8.18182C5.90767 8.18182 4.61649 6.96136 4.61649 5.45455H10.3871C10.3871 6.96136 9.09594 8.18182 7.5018 8.18182ZM2.88531 1.09091V5.45455C2.88531 7.86477 4.95191 9.81818 7.5018 9.81818C10.0517 9.81818 12.1183 7.86477 12.1183 5.45455V1.09091C12.1183 0.790909 11.8586 0.545455 11.5412 0.545455H11.4258C11.3104 0.545455 11.2022 0.576136 11.1048 0.6375L10.3835 1.09091L10.3042 1.13864C9.84612 1.42841 9.2366 1.37045 8.84708 1.00227L7.99591 0.194318C7.86247 0.0681818 7.68574 0 7.5018 0C7.31787 0 7.14114 0.0681818 7.00769 0.194318L6.15292 1.00227C5.76341 1.37045 5.15388 1.42841 4.69584 1.13864L4.61649 1.09091L3.89517 0.6375C3.80139 0.576136 3.68959 0.545455 3.57778 0.545455H3.46237C3.14499 0.545455 2.88531 0.790909 2.88531 1.09091ZM5.93652 11.4545C2.65809 11.4545 0 13.967 0 17.0659C0 17.5807 0.443616 18 0.988218 18H14.0118C14.5564 18 15 17.5807 15 17.0659C15 13.967 12.3419 11.4545 9.06348 11.4545H5.92931H5.93652Z" fill="white"/>
</svg>
