<svg width="12" height="10" viewBox="0 0 12 10" fill="none" xmlns="http://www.w3.org/2000/svg">
<path d="M1.33333 2.25806C1.33333 1.96153 1.39369 1.6679 1.51095 1.39394C1.62821 1.11998 1.80008 0.871052 2.01675 0.661372C2.23342 0.451691 2.49065 0.285363 2.77374 0.171885C3.05683 0.0584066 3.36025 0 3.66667 0C3.97308 0 4.2765 0.0584066 4.55959 0.171885C4.84269 0.285363 5.09991 0.451691 5.31658 0.661372C5.53325 0.871052 5.70512 1.11998 5.82239 1.39394C5.93965 1.6679 6 1.96153 6 2.25806C6 2.5546 5.93965 2.84823 5.82239 3.12219C5.70512 3.39615 5.53325 3.64508 5.31658 3.85476C5.09991 4.06444 4.84269 4.23077 4.55959 4.34424C4.2765 4.45772 3.97308 4.51613 3.66667 4.51613C3.36025 4.51613 3.05683 4.45772 2.77374 4.34424C2.49065 4.23077 2.23342 4.06444 2.01675 3.85476C1.80008 3.64508 1.62821 3.39615 1.51095 3.12219C1.39369 2.84823 1.33333 2.5546 1.33333 2.25806ZM0 9.03226C0 7.07258 1.64167 5.48387 3.66667 5.48387C5.69167 5.48387 7.33333 7.07258 7.33333 9.03226V9.15323C7.33333 9.62097 6.94167 10 6.45833 10H0.875C0.391667 10 0 9.62097 0 9.15323V9.03226ZM9 0.967742C9.53043 0.967742 10.0391 1.17166 10.4142 1.53463C10.7893 1.89761 11 2.3899 11 2.90323C11 3.41655 10.7893 3.90885 10.4142 4.27182C10.0391 4.63479 9.53043 4.83871 9 4.83871C8.46957 4.83871 7.96086 4.63479 7.58579 4.27182C7.21071 3.90885 7 3.41655 7 2.90323C7 2.3899 7.21071 1.89761 7.58579 1.53463C7.96086 1.17166 8.46957 0.967742 9 0.967742ZM9 5.80645C10.6563 5.80645 12 7.10685 12 8.70968V9.16129C12 9.625 11.6125 10 11.1333 10H8.11667C8.25417 9.74798 8.33333 9.45968 8.33333 9.15323V9.03226C8.33333 7.99395 7.97083 7.03831 7.36458 6.27621C7.83542 5.97984 8.39792 5.80645 9 5.80645Z" fill="white"/>
</svg>
