<svg width="25" height="18" viewBox="0 0 25 18" fill="none" xmlns="http://www.w3.org/2000/svg">
<path d="M12.5 0C13.5774 0 14.6108 0.42506 15.3726 1.18167C16.1345 1.93828 16.5625 2.96447 16.5625 4.03448C16.5625 5.10449 16.1345 6.13068 15.3726 6.88729C14.6108 7.64391 13.5774 8.06897 12.5 8.06897C11.4226 8.06897 10.3892 7.64391 9.62738 6.88729C8.86551 6.13068 8.4375 5.10449 8.4375 4.03448C8.4375 2.96447 8.86551 1.93828 9.62738 1.18167C10.3892 0.42506 11.4226 0 12.5 0ZM3.75 2.7931C4.11934 2.7931 4.48507 2.86535 4.8263 3.00572C5.16753 3.14608 5.47757 3.35182 5.73874 3.61118C5.9999 3.87055 6.20707 4.17846 6.34841 4.51733C6.48975 4.85621 6.5625 5.21941 6.5625 5.58621C6.5625 5.953 6.48975 6.31621 6.34841 6.65508C6.20707 6.99396 5.9999 7.30187 5.73874 7.56123C5.47757 7.82059 5.16753 8.02633 4.8263 8.1667C4.48507 8.30706 4.11934 8.37931 3.75 8.37931C3.38066 8.37931 3.01493 8.30706 2.6737 8.1667C2.33247 8.02633 2.02243 7.82059 1.76126 7.56123C1.5001 7.30187 1.29293 6.99396 1.15159 6.65508C1.01025 6.31621 0.9375 5.953 0.9375 5.58621C0.9375 5.21941 1.01025 4.85621 1.15159 4.51733C1.29293 4.17846 1.5001 3.87055 1.76126 3.61118C2.02243 3.35182 2.33247 3.14608 2.6737 3.00572C3.01493 2.86535 3.38066 2.7931 3.75 2.7931ZM0 15.5172C0 12.7746 2.23828 10.5517 5 10.5517C5.5 10.5517 5.98437 10.6254 6.44141 10.7612C5.15625 12.1888 4.375 14.0741 4.375 16.1379V16.7586C4.375 17.2009 4.46875 17.6198 4.63672 18H1.25C0.558594 18 0 17.4453 0 16.7586V15.5172ZM20.3633 18C20.5312 17.6198 20.625 17.2009 20.625 16.7586V16.1379C20.625 14.0741 19.8438 12.1888 18.5586 10.7612C19.0156 10.6254 19.5 10.5517 20 10.5517C22.7617 10.5517 25 12.7746 25 15.5172V16.7586C25 17.4453 24.4414 18 23.75 18H20.3633ZM18.4375 5.58621C18.4375 4.84543 18.7338 4.13499 19.2613 3.61118C19.7887 3.08738 20.5041 2.7931 21.25 2.7931C21.9959 2.7931 22.7113 3.08738 23.2387 3.61118C23.7662 4.13499 24.0625 4.84543 24.0625 5.58621C24.0625 6.32698 23.7662 7.03742 23.2387 7.56123C22.7113 8.08504 21.9959 8.37931 21.25 8.37931C20.5041 8.37931 19.7887 8.08504 19.2613 7.56123C18.7338 7.03742 18.4375 6.32698 18.4375 5.58621ZM6.25 16.1379C6.25 12.7086 9.04687 9.93103 12.5 9.93103C15.9531 9.93103 18.75 12.7086 18.75 16.1379V16.7586C18.75 17.4453 18.1914 18 17.5 18H7.5C6.80859 18 6.25 17.4453 6.25 16.7586V16.1379Z" fill="white"/>
</svg>
