<svg width="13" height="14" viewBox="0 0 13 14" fill="none" xmlns="http://www.w3.org/2000/svg">
<path d="M3.64737 0.00273384H9.35235C10.0273 0.00273384 10.5774 0.598711 10.5519 1.32045C10.5468 1.46534 10.5417 1.61023 10.5341 1.75239H11.7973C12.4621 1.75239 13.0478 2.3429 12.9969 3.11385C12.8059 5.94884 11.4561 7.50713 9.99161 8.32181C9.5892 8.54599 9.17916 8.71275 8.78949 8.83577C8.27502 9.61765 7.74018 10.0305 7.31486 10.2519V12.2503H8.94485C9.39564 12.2503 9.75984 12.6413 9.75984 13.1252C9.75984 13.6091 9.39564 14 8.94485 14H4.05487C3.60408 14 3.23988 13.6091 3.23988 13.1252C3.23988 12.6413 3.60408 12.2503 4.05487 12.2503H5.68486V10.2519C5.27737 10.0414 4.77054 9.65046 4.27645 8.93146C3.80783 8.80024 3.29845 8.60066 2.80181 8.29994C1.42396 7.47159 0.181093 5.91056 0.00281222 3.10838C-0.0455782 2.34017 0.537653 1.74966 1.20238 1.74966H2.46563C2.45799 1.6075 2.45289 1.46534 2.4478 1.31771C2.42233 0.593243 2.97245 0 3.64737 0V0.00273384ZM2.55732 3.06464H1.22276C1.38067 5.3802 2.37139 6.53935 3.39269 7.15446C3.02594 6.13474 2.72286 4.80336 2.55732 3.06464ZM9.65033 7.02324C10.6818 6.37258 11.614 5.21617 11.7719 3.06464H10.4399C10.282 4.72955 9.9967 6.02265 9.65033 7.02324Z" fill="#00FD66"/>
</svg>
